# xmcd
#
# Track frame offsets: 
#        150
#        21030
#        34299
#        44160
#        54477
#        66953
#        84715
#        97139
#        111162
#        121939
#        132168
#        146641
#        160259
#        178917
#        191903
#
# Disc length: 2719 seconds
#
# Revision: 1
# Processed by: cddbd v1.5.1PL0 Copyright (c) Steve Scherf et al.
# Submitted via: ExactAudioCopy v0.95b3
#
DISCID=e40a9d0f
DTITLE=Merle Haggard - Ol' Country Singer
DYEAR=2004
DGENRE=Country
TTITLE0=Runnin' Kind/Lonesome Fugitive
TTITLE1=Folsom Prison
TTITLE2=Texas Women
TTITLE3=Get Along Home Cindy
TTITLE4=A Place To Fall Apart
TTITLE5=Runaway Mama
TTITLE6=Ol' Country Singer
TTITLE7=Farmer's Daughter
TTITLE8=Rainbow Stew
TTITLE9=Fightin' Side Of Me
TTITLE10=Natural High
TTITLE11=Kern River
TTITLE12=Footlights
TTITLE13=Turn Myself In
TTITLE14=Ol' Country Singer (in studio)
EXTD=Live At Billy Bob's Texas
EXTT0=
EXTT1=
EXTT2=
EXTT3=
EXTT4=
EXTT5=
EXTT6=
EXTT7=
EXTT8=
EXTT9=
EXTT10=
EXTT11=
EXTT12=
EXTT13=
EXTT14=
PLAYORDER=
